<mxfile host="app.diagrams.net" modified="2023-05-05T15:30:07.342Z" agent="Mozilla/5.0 (X11; Ubuntu; Linux x86_64; rv:109.0) Gecko/20100101 Firefox/112.0" version="21.2.8" etag="vmy7doiDAP4pNgbSZiLC" type="github">
  <diagram name="Page-1" id="461Q83WGfPCiDOEtW-q6">
    <mxGraphModel>
      <root>
        <mxCell id="0" />
        <mxCell id="1" parent="0" />
      </root>
    </mxGraphModel>
  </diagram>
</mxfile>
